<?xml version="1.0" encoding="iso-8859-1"?>
<!-- Generator: Adobe Illustrator 18.1.1, SVG Export Plug-In . SVG Version: 6.00 Build 0)  -->
<svg version="1.1" id="Capa_1" xmlns="http://www.w3.org/2000/svg" xmlns:xlink="http://www.w3.org/1999/xlink" x="0px" y="0px"
	 viewBox="0 0 156.451 156.451" style="enable-background:new 0 0 156.451 156.451;" xml:space="preserve">
<g>
	<path style="fill:#010002;" d="M2.075,90.511c-3.872-19.947,0.251-40.205,11.606-57.049S42.286,5.209,62.227,1.331
		C66.004,0.597,69.716,0.155,73.505,0v71.781l-0.931-0.251l0.931,4.785v2.166l0.448,0.119l13.258,68.225l0.853,4.392
		c-3.789,0.573-7.608,0.865-11.415,0.865C40.377,152.066,9.009,126.181,2.075,90.511z M87.384,86.931l13.515,69.52
		c26.594-6.259,46.792-25.103,54.895-51.19l-6.337-1.689L87.384,86.931z M79.979,0v73.512l71.024,19.034
		c1.313-5.621,1.802-10.287,1.802-16.546C152.81,35.127,120.422,1.695,79.979,0z"/>
</g>
<g>
</g>
<g>
</g>
<g>
</g>
<g>
</g>
<g>
</g>
<g>
</g>
<g>
</g>
<g>
</g>
<g>
</g>
<g>
</g>
<g>
</g>
<g>
</g>
<g>
</g>
<g>
</g>
<g>
</g>
</svg>
